<mxfile host="app.diagrams.net" modified="2024-04-10T13:01:55.911Z" agent="Mozilla/5.0 (Windows NT 10.0; Win64; x64) AppleWebKit/537.36 (KHTML, like Gecko) Chrome/123.0.0.0 Safari/537.36" version="24.2.3" etag="K1CdgwB-a4YvvL6Q1ql6" type="github">
  <diagram name="第 1 页" id="F5urb8sTat8lBPih3Qtc">
    <mxGraphModel>
      <root>
        <mxCell id="0" />
        <mxCell id="1" parent="0" />
      </root>
    </mxGraphModel>
  </diagram>
</mxfile>
